<svg width="142" height="40" viewBox="0 0 142 40" fill="none" xmlns="http://www.w3.org/2000/svg">
<g clip-path="url(#clip0_18_1488)">
<path fill-rule="evenodd" clip-rule="evenodd" d="M21.5425 5.5749L28.1184 27.0906C25.5645 25.771 22.8257 24.8475 19.9954 24.3518L15.5723 9.4647C15.5366 9.3454 15.4634 9.24083 15.3636 9.16657C15.2639 9.09231 15.1429 9.05231 15.0186 9.05253C14.8944 9.05275 14.7735 9.09318 14.674 9.16779C14.5745 9.24241 14.5017 9.34723 14.4664 9.46666L10.0965 24.3443C7.25336 24.8378 4.50187 25.7628 1.93677 27.0874L8.54622 5.56862C8.93662 4.29686 9.13183 3.66078 9.51245 3.1898C9.84811 2.77394 10.2843 2.45103 10.7795 2.25176C11.3405 2.02588 12.0039 2.02588 13.3316 2.02588H16.7548C18.0841 2.02588 18.7487 2.02588 19.3101 2.25215C19.8058 2.45186 20.2422 2.77547 20.5779 3.19215C20.9581 3.66392 21.1533 4.30078 21.5425 5.5749Z" fill="black"/>
<path fill-rule="evenodd" clip-rule="evenodd" d="M21.3657 28.1486C20.2457 29.1023 18.0101 29.7529 15.435 29.7529C12.2742 29.7529 9.62508 28.7729 8.92213 27.4549C8.67099 28.2102 8.61465 29.0745 8.61465 29.6271C8.61465 29.6271 8.44918 32.3388 10.3429 34.2251C10.3429 33.2455 11.1398 32.4518 12.1232 32.4518C13.8088 32.4518 13.8068 33.9161 13.8053 35.1043V35.2102C13.8053 37.0141 14.9119 38.5596 16.4857 39.2114C16.2435 38.7152 16.118 38.17 16.1187 37.6176C16.1187 35.8976 17.1327 35.2569 18.3109 34.5129C19.2482 33.9208 20.2903 33.2627 21.0078 31.9427C21.3943 31.2325 21.5964 30.4361 21.5953 29.6271C21.5953 29.1118 21.5147 28.6149 21.3657 28.1486Z" fill="#FF5D01"/>
<path d="M49.506 27.0588C54.6364 27.0588 57.7392 25.8275 59.5516 23.2729C59.5516 24.4118 59.613 25.489 59.7667 26.4741H62.8078C62.5316 24.8733 62.4702 23.8271 62.4702 20.9337V16.9937C62.4702 12.7463 59.1831 10.4996 52.9159 10.4996C46.8643 10.4996 42.9321 12.8384 42.4404 16.2243H45.6661C46.1574 13.9467 48.7072 12.7459 52.9159 12.7459C57.0633 12.7459 59.5211 14.1929 59.5211 16.6553V16.9631L49.9363 17.5173C46.0346 17.7325 44.5907 18.2867 43.4849 19.0871C42.4404 19.8565 41.8568 21.0569 41.8568 22.442C41.8568 25.3659 44.8673 27.0588 49.506 27.0588ZM50.489 24.8733C46.9257 24.8733 44.9596 24.0424 44.9596 22.3804C44.9596 20.5949 46.1883 19.7949 50.5199 19.5176L59.5211 18.9639V19.6718C59.5211 22.9035 55.7422 24.8733 50.489 24.8733ZM76.7058 27.0588C83.0649 27.0588 85.615 24.9659 85.615 21.9184C85.615 19.3945 84.048 18.102 80.0544 17.7631L72.5894 17.1788C70.5619 17.0247 69.4255 16.44 69.4255 15.178C69.4255 13.5773 71.1764 12.7463 74.9549 12.7463C79.256 12.7463 81.4982 13.6082 82.973 15.5165L85.4613 14.3161C83.9251 11.9153 80.5152 10.4992 75.2314 10.4992C69.794 10.4992 66.5378 12.3153 66.5378 15.3008C66.5378 17.9788 68.4729 19.2714 72.1286 19.5792L79.5321 20.1643C81.959 20.3486 82.6964 20.8412 82.6964 22.1031C82.6964 23.9192 80.8226 24.7812 77.1052 24.7812C72.5894 24.7812 69.7326 23.5498 68.3501 21.3027L65.9232 22.6267C67.797 25.458 71.0841 27.0588 76.7058 27.0588ZM91.9006 13.3926V20.8106C91.9006 23.8576 92.9451 26.9047 98.6282 26.9047C100.072 26.9047 101.823 26.6278 102.591 26.289V23.7961C101.516 24.0424 100.226 24.2275 98.9662 24.2275C96.2936 24.2275 94.8497 23.1804 94.8497 20.5333V13.3926H102.53V11.0839H94.8497V5.88235L91.9006 7.08275V11.0843H87.0773V13.3926H91.9006ZM109.854 11.0843H107.15V26.4741H110.069V20.7176C110.069 18.502 110.499 16.6239 111.727 15.3314C112.803 14.131 114.185 13.4537 116.612 13.4537C117.441 13.4537 117.964 13.5153 118.671 13.6384V10.8071C118.025 10.6529 117.472 10.622 116.643 10.622C113.356 10.622 110.744 12.5612 109.854 15.5467V11.0843ZM130.971 27.0588C137.515 27.0588 142 23.7345 142 18.7792C142 13.8235 137.515 10.4992 130.971 10.4992C124.428 10.4992 119.943 13.8235 119.943 18.7792C119.943 23.7345 124.428 27.0588 130.971 27.0588ZM130.971 24.6275C126.148 24.6275 123.046 22.3494 123.046 18.7792C123.046 15.2086 126.148 12.931 130.971 12.931C135.764 12.931 138.897 15.2086 138.897 18.7792C138.897 22.3494 135.764 24.6275 130.971 24.6275Z" fill="black"/>
</g>
<defs>
<clipPath id="clip0_18_1488">
<rect width="142" height="40" fill="white"/>
</clipPath>
</defs>
</svg>
